<svg width="30" height="30" viewBox="0 0 30 30" fill="none" xmlns="http://www.w3.org/2000/svg">
<path fill-rule="evenodd" clip-rule="evenodd" d="M8.84358 2.4H20.8586C24.5263 2.42774 27.4772 5.42298 27.4502 9.0906V17.214C27.4631 18.9757 26.7757 20.6702 25.5391 21.925C24.3027 23.1796 22.6184 23.8918 20.8568 23.9046H8.84358L2.25018 27.6V9.0906C2.23724 7.32901 2.92464 5.63446 4.16115 4.37971C5.39768 3.12497 7.08199 2.41284 8.84358 2.4Z" stroke="#606060" stroke-width="3.84" stroke-linecap="round" stroke-linejoin="round"/>
<path fill-rule="evenodd" clip-rule="evenodd" d="M5.8501 13.2C5.8501 12.2059 6.65599 11.4 7.6501 11.4C8.64422 11.4 9.4501 12.2059 9.4501 13.2C9.4501 14.1941 8.64422 15 7.6501 15C7.17272 15 6.71487 14.8103 6.3773 14.4728C6.03975 14.1353 5.8501 13.6774 5.8501 13.2Z" stroke="#606060" stroke-width="2.56" stroke-linecap="round" stroke-linejoin="round"/>
<path fill-rule="evenodd" clip-rule="evenodd" d="M13.0503 13.2C13.0503 12.2059 13.8562 11.4 14.8503 11.4C15.8444 11.4 16.6503 12.2059 16.6503 13.2C16.6503 14.1941 15.8444 15 14.8503 15C13.8562 15 13.0503 14.1941 13.0503 13.2Z" stroke="#606060" stroke-width="2.56" stroke-linecap="round" stroke-linejoin="round"/>
<path fill-rule="evenodd" clip-rule="evenodd" d="M20.2502 13.2C20.2502 12.2059 21.0561 11.4 22.0502 11.4C23.0444 11.4 23.8502 12.2059 23.8502 13.2C23.8502 14.1941 23.0444 15 22.0502 15C21.0561 15 20.2502 14.1941 20.2502 13.2Z" stroke="#606060" stroke-width="2.56" stroke-linecap="round" stroke-linejoin="round"/>
</svg>
