<svg width="41" height="40" viewBox="0 0 41 40" fill="none" xmlns="http://www.w3.org/2000/svg">
<path d="M31.2169 11.85C32.9433 13.0774 34.2353 14.8212 34.9067 16.8302C35.5781 18.8391 35.5943 21.0094 34.9529 23.0281C34.3115 25.0468 33.0457 26.8098 31.3378 28.0628C29.63 29.3158 27.5684 29.9941 25.4503 30H17.1169" stroke="#606060" stroke-width="4.48" stroke-linecap="round" stroke-linejoin="round"/>
<path d="M9.68359 28.15C7.95727 26.9226 6.66528 25.1788 5.99385 23.1698C5.32242 21.1609 5.30623 18.9906 5.94763 16.9719C6.58902 14.9532 7.85487 13.1902 9.56269 11.9372C11.2705 10.6843 13.3321 10.0059 15.4503 10H23.7836" stroke="#606060" stroke-width="4.48" stroke-linecap="round" stroke-linejoin="round"/>
<path d="M20.4503 33.3333L17.1169 30L20.4503 26.6667" stroke="#606060" stroke-width="4.48" stroke-linecap="round" stroke-linejoin="round"/>
<path d="M20.4503 6.66667L23.7837 10L20.4503 13.3333" stroke="#606060" stroke-width="4.48" stroke-linecap="round" stroke-linejoin="round"/>
</svg>
