<svg width="45" height="45" viewBox="0 0 45 45" fill="none" xmlns="http://www.w3.org/2000/svg">
<path d="M26.7448 29.8828L23.6171 26.7814C22.1079 25.2846 21.3533 24.5362 20.4874 24.2627C19.7258 24.0221 18.9071 24.0309 18.1509 24.288C17.291 24.5803 16.5528 25.3447 15.0763 26.8736L7.58267 34.2752M26.7448 29.8828L27.3849 29.2481C28.896 27.7496 29.6514 27.0004 30.5184 26.7268C31.2808 26.4863 32.1 26.4958 32.8567 26.7538C33.717 27.0471 34.4552 27.8136 35.9314 29.3464L37.5 30.9251M26.7448 29.8828L34.2656 37.4184M7.58267 34.2752C7.64085 34.7477 7.73992 35.1212 7.90873 35.4525C8.26824 36.1581 8.84192 36.7318 9.54754 37.0912C10.3497 37.5 11.3998 37.5 13.5 37.5H31.5C32.7268 37.5 33.5955 37.5 34.2656 37.4184M7.58267 34.2752C7.5 33.6039 7.5 32.7328 7.5 31.5V13.5C7.5 11.3998 7.5 10.3497 7.90873 9.54754C8.26824 8.84192 8.84192 8.26824 9.54754 7.90873C10.3497 7.5 11.3998 7.5 13.5 7.5H31.5C33.6002 7.5 34.6504 7.5 35.4525 7.90873C36.1581 8.26824 36.7318 8.84192 37.0912 9.54754C37.5 10.3497 37.5 11.3998 37.5 13.5V30.9251M37.5 30.9251V31.5C37.5 33.6002 37.5 34.6504 37.0912 35.4525C36.7318 36.1581 36.1581 36.7318 35.4525 37.0912C35.1189 37.2613 34.7424 37.3605 34.2656 37.4184M31.875 16.8748C31.875 18.9459 30.1961 20.6248 28.125 20.6248C26.0539 20.6248 24.375 18.9459 24.375 16.8748C24.375 14.8037 26.0539 13.1248 28.125 13.1248C30.1961 13.1248 31.875 14.8037 31.875 16.8748Z" stroke="#606060" stroke-width="3.2" stroke-linecap="round" stroke-linejoin="round"/>
</svg>
